NotoSansInscriptionalParthian-Regular.ufo
<glyph name="u10B40" format="2">
  <advance width="747"/>
  <unicode hex="10B40"/>
  <outline>
    <contour>
      <point x="5" y="0" type="line"/>
      <point x="662" y="0" type="line"/>
      <point x="662" y="536" type="line"/>
      <point x="574" y="536" type="line"/>
      <point x="574" y="74" type="line"/>
      <point x="502" y="74" type="line"/>
      <point x="262" y="536" type="line"/>
      <point x="162" y="536" type="line"/>
      <point x="411" y="74" type="line"/>
      <point x="5" y="74" type="line"/>
    </contour>
  </outline>
</glyph>
<glyph name="u10B41" format="2">
  <advance width="872"/>
  <unicode hex="10B41"/>
  <outline>
    <contour>
      <point x="15" y="0" type="line"/>
      <point x="496" y="0" type="line" smooth="yes"/>
      <point x="719" y="0"/>
      <point x="838" y="99"/>
      <point x="838" y="293" type="curve" smooth="yes"/>
      <point x="838" y="459"/>
      <point x="758" y="545"/>
      <point x="604" y="545" type="curve" smooth="yes"/>
      <point x="567" y="545"/>
      <point x="521" y="535"/>
      <point x="469" y="515" type="curve" smooth="yes"/>
      <point x="415" y="494"/>
      <point x="364" y="484"/>
      <point x="313" y="484" type="curve" smooth="yes"/>
      <point x="246" y="484"/>
      <point x="195" y="508"/>
      <point x="162" y="555" type="curve"/>
      <point x="104" y="503" type="line"/>
      <point x="158" y="437"/>
      <point x="225" y="410"/>
      <point x="313" y="410" type="curve" smooth="yes"/>
      <point x="373" y="410"/>
      <point x="428" y="420"/>
      <point x="481" y="441" type="curve" smooth="yes"/>
      <point x="531" y="461"/>
      <point x="569" y="471"/>
      <point x="602" y="471" type="curve" smooth="yes"/>
      <point x="698" y="471"/>
      <point x="747" y="411"/>
      <point x="747" y="300" type="curve" smooth="yes"/>
      <point x="747" y="142"/>
      <point x="675" y="74"/>
      <point x="497" y="74" type="curve" smooth="yes"/>
      <point x="15" y="74" type="line"/>
    </contour>
  </outline>
</glyph>
<glyph name="u10B42" format="2">
  <advance width="605"/>
  <unicode hex="10B42"/>
  <outline>
    <contour>
      <point x="15" y="-10" type="line"/>
      <point x="31" y="-10" type="line" smooth="yes"/>
      <point x="234" y="-10"/>
      <point x="394" y="80"/>
      <point x="486" y="248" type="curve" smooth="yes"/>
      <point x="532" y="332"/>
      <point x="558" y="428"/>
      <point x="563" y="536" type="curve"/>
      <point x="486" y="536" type="line"/>
      <point x="417" y="429"/>
      <point x="322" y="376"/>
      <point x="201" y="376" type="curve" smooth="yes"/>
      <point x="141" y="376"/>
      <point x="96" y="393"/>
      <point x="61" y="446" type="curve"/>
      <point x="0" y="396" type="line"/>
      <point x="48" y="325"/>
      <point x="110" y="301"/>
      <point x="201" y="301" type="curve" smooth="yes"/>
      <point x="300" y="301"/>
      <point x="385" y="334"/>
      <point x="458" y="401" type="curve"/>
      <point x="430" y="296"/>
      <point x="377" y="214"/>
      <point x="300" y="154" type="curve" smooth="yes"/>
      <point x="222" y="94"/>
      <point x="127" y="64"/>
      <point x="15" y="64" type="curve"/>
    </contour>
  </outline>
</glyph>
<glyph name="u10B43" format="2">
  <advance width="654"/>
  <unicode hex="10B43"/>
  <outline>
    <contour>
      <point x="608" y="419" type="curve"/>
      <point x="355" y="419" type="line" smooth="yes"/>
      <point x="288" y="419"/>
      <point x="218" y="423"/>
      <point x="189" y="465" type="curve" smooth="yes"/>
      <point x="178" y="481"/>
      <point x="173" y="505"/>
      <point x="173" y="536" type="curve"/>
      <point x="85" y="536" type="line"/>
      <point x="86" y="469"/>
      <point x="102" y="423"/>
      <point x="141" y="393" type="curve" smooth="yes"/>
      <point x="183" y="360"/>
      <point x="255" y="345"/>
      <point x="360" y="345" type="curve" smooth="yes"/>
      <point x="503" y="345" type="line"/>
      <point x="465" y="163"/>
      <point x="327" y="112"/>
      <point x="110" y="112" type="curve" smooth="yes"/>
      <point x="39" y="112" type="line"/>
      <point x="39" y="38" type="line"/>
      <point x="87" y="38" type="line" smooth="yes"/>
      <point x="408" y="38"/>
      <point x="572" y="121"/>
    </contour>
    <contour>
      <point x="29" y="-129" type="curve"/>
      <point x="89" y="-129" type="line"/>
      <point x="98" y="-94"/>
      <point x="135" y="-77"/>
      <point x="182" y="-77" type="curve" smooth="yes"/>
      <point x="234" y="-77"/>
      <point x="265" y="-94"/>
      <point x="275" y="-129" type="curve"/>
      <point x="335" y="-129" type="line"/>
      <point x="323" y="-51"/>
      <point x="270" y="-8"/>
      <point x="183" y="-8" type="curve" smooth="yes"/>
      <point x="103" y="-8"/>
      <point x="39" y="-53"/>
    </contour>
  </outline>
</glyph>
<glyph name="u10B44" format="2">
  <advance width="728"/>
  <unicode hex="10B44"/>
  <outline>
    <contour>
      <point x="196" y="-10" type="curve" smooth="yes"/>
      <point x="331" y="-10"/>
      <point x="394" y="103"/>
      <point x="394" y="249" type="curve"/>
      <point x="555" y="249" type="line"/>
      <point x="555" y="0" type="line"/>
      <point x="643" y="0" type="line"/>
      <point x="643" y="536" type="line"/>
      <point x="555" y="536" type="line"/>
      <point x="555" y="323" type="line"/>
      <point x="394" y="323" type="line"/>
      <point x="394" y="536" type="line"/>
      <point x="306" y="536" type="line"/>
      <point x="306" y="323" type="line"/>
      <point x="264" y="323" type="line" smooth="yes"/>
      <point x="116" y="323"/>
      <point x="42" y="264"/>
      <point x="42" y="140" type="curve" smooth="yes"/>
      <point x="42" y="48"/>
      <point x="96" y="-10"/>
    </contour>
    <contour>
      <point x="199" y="64" type="curve" smooth="yes"/>
      <point x="156" y="64"/>
      <point x="133" y="93"/>
      <point x="133" y="142" type="curve" smooth="yes"/>
      <point x="133" y="218"/>
      <point x="174" y="249"/>
      <point x="267" y="249" type="curve" smooth="yes"/>
      <point x="306" y="249" type="line"/>
      <point x="306" y="125"/>
      <point x="267" y="64"/>
    </contour>
  </outline>
</glyph>
<glyph name="u10B45" format="2">
  <advance width="586"/>
  <unicode hex="10B45"/>
  <outline>
    <contour>
      <point x="176" y="-10" type="line"/>
      <point x="201" y="-10" type="line" smooth="yes"/>
      <point x="398" y="-10"/>
      <point x="531" y="112"/>
      <point x="531" y="305" type="curve" smooth="yes"/>
      <point x="531" y="448"/>
      <point x="440" y="546"/>
      <point x="299" y="546" type="curve" smooth="yes"/>
      <point x="149" y="546"/>
      <point x="48" y="460"/>
      <point x="36" y="302" type="curve"/>
      <point x="124" y="302" type="line"/>
      <point x="132" y="409"/>
      <point x="190" y="472"/>
      <point x="298" y="472" type="curve" smooth="yes"/>
      <point x="386" y="472"/>
      <point x="440" y="394"/>
      <point x="440" y="305" type="curve" smooth="yes"/>
      <point x="440" y="157"/>
      <point x="359" y="68"/>
      <point x="203" y="68" type="curve" smooth="yes"/>
      <point x="176" y="68" type="line"/>
    </contour>
  </outline>
</glyph>
<glyph name="u10B46" format="2">
  <advance width="328"/>
  <unicode hex="10B46"/>
  <outline>
    <contour>
      <point x="106" y="-10" type="curve" smooth="yes"/>
      <point x="193" y="-10"/>
      <point x="246" y="46"/>
      <point x="246" y="132" type="curve" smooth="yes"/>
      <point x="246" y="215"/>
      <point x="194" y="270"/>
      <point x="194" y="322" type="curve" smooth="yes"/>
      <point x="194" y="390"/>
      <point x="233" y="438"/>
      <point x="290" y="491" type="curve"/>
      <point x="224" y="546" type="line"/>
      <point x="146" y="467"/>
      <point x="106" y="392"/>
      <point x="106" y="320" type="curve" smooth="yes"/>
      <point x="106" y="263"/>
      <point x="158" y="198"/>
      <point x="158" y="131" type="curve" smooth="yes"/>
      <point x="158" y="91"/>
      <point x="133" y="64"/>
      <point x="92" y="64" type="curve" smooth="yes"/>
      <point x="61" y="64"/>
      <point x="37" y="68"/>
      <point x="19" y="76" type="curve"/>
      <point x="19" y="2" type="line"/>
      <point x="42" y="-5"/>
      <point x="82" y="-10"/>
    </contour>
  </outline>
</glyph>
<glyph name="u10B47" format="2">
  <advance width="832"/>
  <unicode hex="10B47"/>
  <outline>
    <contour>
      <point x="10" y="-10" type="line"/>
      <point x="89" y="-10"/>
      <point x="179" y="40"/>
      <point x="239" y="104" type="curve" smooth="yes"/>
      <point x="295" y="163"/>
      <point x="334" y="231"/>
      <point x="352" y="304" type="curve"/>
      <point x="367" y="213"/>
      <point x="401" y="140"/>
      <point x="458" y="83" type="curve" smooth="yes"/>
      <point x="514" y="27"/>
      <point x="582" y="0"/>
      <point x="660" y="0" type="curve" smooth="yes"/>
      <point x="747" y="0" type="line"/>
      <point x="747" y="536" type="line"/>
      <point x="659" y="536" type="line"/>
      <point x="659" y="74" type="line"/>
      <point x="611" y="74"/>
      <point x="568" y="94"/>
      <point x="528" y="131" type="curve" smooth="yes"/>
      <point x="436" y="217"/>
      <point x="398" y="382"/>
      <point x="396" y="536" type="curve"/>
      <point x="308" y="536" type="line"/>
      <point x="308" y="405"/>
      <point x="275" y="288"/>
      <point x="218" y="204" type="curve" smooth="yes"/>
      <point x="168" y="131"/>
      <point x="86" y="64"/>
      <point x="10" y="64" type="curve"/>
    </contour>
  </outline>
</glyph>
<glyph name="u10B48" format="2">
  <advance width="816"/>
  <unicode hex="10B48"/>
  <outline>
    <contour>
      <point x="428" y="0" type="line"/>
      <point x="476" y="0" type="line" smooth="yes"/>
      <point x="565" y="0"/>
      <point x="636" y="37"/>
      <point x="688" y="110" type="curve" smooth="yes"/>
      <point x="740" y="184"/>
      <point x="769" y="287"/>
      <point x="774" y="419" type="curve"/>
      <point x="603" y="419" type="line" smooth="yes"/>
      <point x="574" y="419"/>
      <point x="554" y="422"/>
      <point x="543" y="429" type="curve" smooth="yes"/>
      <point x="517" y="447"/>
      <point x="511" y="484"/>
      <point x="511" y="536" type="curve"/>
      <point x="423" y="536" type="line"/>
      <point x="423" y="467"/>
      <point x="436" y="417"/>
      <point x="461" y="387" type="curve" smooth="yes"/>
      <point x="487" y="356"/>
      <point x="530" y="342"/>
      <point x="590" y="342" type="curve" smooth="yes"/>
      <point x="677" y="342" type="line"/>
      <point x="657" y="166"/>
      <point x="588" y="74"/>
      <point x="474" y="74" type="curve" smooth="yes"/>
      <point x="428" y="74" type="line"/>
    </contour>
    <contour>
      <point x="58" y="0" type="line"/>
      <point x="104" y="0" type="line" smooth="yes"/>
      <point x="195" y="0"/>
      <point x="266" y="36"/>
      <point x="318" y="107" type="curve" smooth="yes"/>
      <point x="370" y="179"/>
      <point x="398" y="283"/>
      <point x="404" y="419" type="curve"/>
      <point x="233" y="419" type="line" smooth="yes"/>
      <point x="192" y="419"/>
      <point x="169" y="426"/>
      <point x="156" y="445" type="curve" smooth="yes"/>
      <point x="144" y="463"/>
      <point x="141" y="492"/>
      <point x="141" y="536" type="curve"/>
      <point x="53" y="536" type="line"/>
      <point x="53" y="467"/>
      <point x="66" y="417"/>
      <point x="92" y="387" type="curve" smooth="yes"/>
      <point x="118" y="357"/>
      <point x="160" y="342"/>
      <point x="220" y="342" type="curve" smooth="yes"/>
      <point x="307" y="342" type="line"/>
      <point x="293" y="167"/>
      <point x="217" y="74"/>
      <point x="103" y="74" type="curve" smooth="yes"/>
      <point x="58" y="74" type="line"/>
    </contour>
  </outline>
</glyph>
<glyph name="u10B49" format="2">
  <advance width="290"/>
  <unicode hex="10B49"/>
  <outline>
    <contour>
      <point x="20" y="-8" type="line"/>
      <point x="145" y="-8"/>
      <point x="210" y="63"/>
      <point x="210" y="204" type="curve" smooth="yes"/>
      <point x="210" y="536" type="line"/>
      <point x="122" y="536" type="line"/>
      <point x="122" y="204" type="line" smooth="yes"/>
      <point x="122" y="107"/>
      <point x="90" y="66"/>
      <point x="20" y="66" type="curve"/>
    </contour>
  </outline>
</glyph>
<glyph name="u10B4A" format="2">
  <advance width="857"/>
  <unicode hex="10B4A"/>
  <outline>
    <contour>
      <point x="15" y="0" type="line"/>
      <point x="359" y="0" type="line" smooth="yes"/>
      <point x="500" y="0"/>
      <point x="608" y="35"/>
      <point x="687" y="111" type="curve" smooth="yes"/>
      <point x="764" y="186"/>
      <point x="807" y="288"/>
      <point x="815" y="419" type="curve"/>
      <point x="561" y="419" type="line" smooth="yes"/>
      <point x="489" y="419"/>
      <point x="462" y="454"/>
      <point x="462" y="536" type="curve"/>
      <point x="374" y="536" type="line"/>
      <point x="374" y="469"/>
      <point x="389" y="420"/>
      <point x="418" y="390" type="curve" smooth="yes"/>
      <point x="447" y="360"/>
      <point x="495" y="345"/>
      <point x="561" y="345" type="curve" smooth="yes"/>
      <point x="719" y="345" type="line"/>
      <point x="685" y="166"/>
      <point x="564" y="74"/>
      <point x="358" y="74" type="curve" smooth="yes"/>
      <point x="15" y="74" type="line"/>
    </contour>
  </outline>
</glyph>
<glyph name="u10B4B" format="2">
  <advance width="470"/>
  <unicode hex="10B4B"/>
  <outline>
    <contour>
      <point x="60" y="0" type="line"/>
      <point x="103" y="0" type="line" smooth="yes"/>
      <point x="303" y="0"/>
      <point x="415" y="96"/>
      <point x="415" y="240" type="curve" smooth="yes"/>
      <point x="415" y="362"/>
      <point x="323" y="435"/>
      <point x="201" y="437" type="curve"/>
      <point x="201" y="760" type="line"/>
      <point x="113" y="760" type="line"/>
      <point x="113" y="428" type="line"/>
      <point x="66" y="416"/>
      <point x="26" y="391"/>
      <point x="-7" y="351" type="curve"/>
      <point x="45" y="301" type="line"/>
      <point x="79" y="342"/>
      <point x="125" y="363"/>
      <point x="186" y="363" type="curve" smooth="yes"/>
      <point x="260" y="363"/>
      <point x="324" y="317"/>
      <point x="324" y="238" type="curve" smooth="yes"/>
      <point x="324" y="129"/>
      <point x="248" y="74"/>
      <point x="95" y="74" type="curve" smooth="yes"/>
      <point x="60" y="74" type="line"/>
    </contour>
  </outline>
</glyph>
<glyph name="u10B4C" format="2">
  <advance width="659"/>
  <unicode hex="10B4C"/>
  <outline>
    <contour>
      <point x="38" y="-10" type="line"/>
      <point x="136" y="-10"/>
      <point x="194" y="39"/>
      <point x="231" y="147" type="curve" smooth="yes"/>
      <point x="250" y="202"/>
      <point x="265" y="277"/>
      <point x="275" y="372" type="curve"/>
      <point x="509" y="372" type="line"/>
      <point x="501" y="276"/>
      <point x="483" y="202"/>
      <point x="453" y="149" type="curve" smooth="yes"/>
      <point x="423" y="96"/>
      <point x="385" y="69"/>
      <point x="338" y="68" type="curve"/>
      <point x="338" y="-10" type="line"/>
      <point x="415" y="-10"/>
      <point x="477" y="32"/>
      <point x="524" y="114" type="curve" smooth="yes"/>
      <point x="572" y="197"/>
      <point x="599" y="308"/>
      <point x="603" y="446" type="curve"/>
      <point x="280" y="446" type="line"/>
      <point x="285" y="505"/>
      <point x="298" y="546"/>
      <point x="318" y="571" type="curve" smooth="yes"/>
      <point x="338" y="596"/>
      <point x="371" y="608"/>
      <point x="415" y="608" type="curve"/>
      <point x="438" y="686" type="line"/>
      <point x="382" y="686"/>
      <point x="337" y="678"/>
      <point x="305" y="663" type="curve" smooth="yes"/>
      <point x="228" y="626"/>
      <point x="203" y="546"/>
      <point x="193" y="446" type="curve"/>
      <point x="159" y="448"/>
      <point x="134" y="455"/>
      <point x="120" y="468" type="curve" smooth="yes"/>
      <point x="105" y="481"/>
      <point x="96" y="504"/>
      <point x="93" y="536" type="curve"/>
      <point x="5" y="536" type="line"/>
      <point x="15" y="427"/>
      <point x="71" y="378"/>
      <point x="188" y="372" type="curve"/>
      <point x="175" y="261"/>
      <point x="157" y="138"/>
      <point x="111" y="94" type="curve" smooth="yes"/>
      <point x="93" y="77"/>
      <point x="69" y="68"/>
      <point x="38" y="68" type="curve"/>
    </contour>
  </outline>
</glyph>
<glyph name="u10B4D" format="2">
  <advance width="873"/>
  <unicode hex="10B4D"/>
  <outline>
    <contour>
      <point x="15" y="-166" type="line"/>
      <point x="788" y="-166" type="line"/>
      <point x="788" y="536" type="line"/>
      <point x="700" y="536" type="line"/>
      <point x="700" y="-92" type="line"/>
      <point x="15" y="-92" type="line"/>
    </contour>
  </outline>
</glyph>
<glyph name="u10B4E" format="2">
  <advance width="702"/>
  <unicode hex="10B4E"/>
  <outline>
    <contour>
      <point x="15" y="-10" type="line"/>
      <point x="210" y="-10"/>
      <point x="288" y="162"/>
      <point x="288" y="388" type="curve" smooth="yes"/>
      <point x="288" y="458" type="line"/>
      <point x="538" y="458" type="line"/>
      <point x="538" y="323" type="line" smooth="yes"/>
      <point x="538" y="187"/>
      <point x="494" y="88"/>
      <point x="384" y="0" type="curve"/>
      <point x="499" y="0" type="line"/>
      <point x="592" y="85"/>
      <point x="630" y="185"/>
      <point x="630" y="323" type="curve" smooth="yes"/>
      <point x="630" y="536" type="line"/>
      <point x="200" y="536" type="line"/>
      <point x="200" y="387" type="line" smooth="yes"/>
      <point x="200" y="178"/>
      <point x="137" y="70"/>
      <point x="15" y="68" type="curve"/>
    </contour>
  </outline>
</glyph>
<glyph name="u10B4F" format="2">
  <advance width="623"/>
  <unicode hex="10B4F"/>
  <outline>
    <contour>
      <point x="15" y="0" type="line"/>
      <point x="210" y="0" type="line" smooth="yes"/>
      <point x="448" y="0"/>
      <point x="568" y="88"/>
      <point x="568" y="275" type="curve" smooth="yes"/>
      <point x="568" y="339"/>
      <point x="550" y="389"/>
      <point x="515" y="426" type="curve" smooth="yes"/>
      <point x="480" y="463"/>
      <point x="433" y="482"/>
      <point x="372" y="482" type="curve" smooth="yes"/>
      <point x="354" y="482"/>
      <point x="332" y="480"/>
      <point x="305" y="476" type="curve" smooth="yes"/>
      <point x="278" y="472"/>
      <point x="257" y="469"/>
      <point x="243" y="469" type="curve" smooth="yes"/>
      <point x="206" y="469"/>
      <point x="189" y="489"/>
      <point x="189" y="536" type="curve"/>
      <point x="101" y="536" type="line"/>
      <point x="101" y="436"/>
      <point x="144" y="394"/>
      <point x="233" y="394" type="curve" smooth="yes"/>
      <point x="247" y="394"/>
      <point x="264" y="397"/>
      <point x="290" y="401" type="curve" smooth="yes"/>
      <point x="315" y="405"/>
      <point x="335" y="407"/>
      <point x="350" y="407" type="curve" smooth="yes"/>
      <point x="437" y="407"/>
      <point x="478" y="357"/>
      <point x="478" y="269" type="curve" smooth="yes"/>
      <point x="478" y="122"/>
      <point x="381" y="75"/>
      <point x="211" y="75" type="curve" smooth="yes"/>
      <point x="15" y="75" type="line"/>
    </contour>
  </outline>
</glyph>
<glyph name="u10B50" format="2">
  <advance width="709"/>
  <unicode hex="10B50"/>
  <outline>
    <contour>
      <point x="15" y="-10" type="line"/>
      <point x="220" y="-10"/>
      <point x="302" y="195"/>
      <point x="302" y="440" type="curve"/>
      <point x="365" y="358"/>
      <point x="454" y="308"/>
      <point x="568" y="288" type="curve"/>
      <point x="553" y="170"/>
      <point x="478" y="68"/>
      <point x="368" y="68" type="curve"/>
      <point x="368" y="-10" type="line"/>
      <point x="542" y="-10"/>
      <point x="665" y="139"/>
      <point x="671" y="360" type="curve"/>
      <point x="469" y="360"/>
      <point x="349" y="460"/>
      <point x="265" y="652" type="curve"/>
      <point x="178" y="652" type="line"/>
      <point x="195" y="597"/>
      <point x="216" y="495"/>
      <point x="216" y="440" type="curve" smooth="yes"/>
      <point x="216" y="249"/>
      <point x="167" y="68"/>
      <point x="15" y="68" type="curve"/>
    </contour>
  </outline>
</glyph>
<glyph name="u10B51" format="2">
  <advance width="1191"/>
  <unicode hex="10B51"/>
  <outline>
    <contour>
      <point x="15" y="-240" type="line"/>
      <point x="470" y="-240" type="line" smooth="yes"/>
      <point x="635" y="-240"/>
      <point x="712" y="-171"/>
      <point x="745" y="5" type="curve" smooth="yes"/>
      <point x="816" y="382" type="line"/>
      <point x="841" y="297"/>
      <point x="872" y="253"/>
      <point x="919" y="232" type="curve" smooth="yes"/>
      <point x="943" y="221"/>
      <point x="976" y="217"/>
      <point x="1018" y="217" type="curve" smooth="yes"/>
      <point x="1143" y="217" type="line"/>
      <point x="1102" y="279"/>
      <point x="1090" y="316"/>
      <point x="1090" y="391" type="curve" smooth="yes"/>
      <point x="1090" y="536" type="line"/>
      <point x="1002" y="536" type="line"/>
      <point x="1002" y="396" type="line" smooth="yes"/>
      <point x="1002" y="351"/>
      <point x="1006" y="317"/>
      <point x="1015" y="295" type="curve"/>
      <point x="989" y="295"/>
      <point x="960" y="300"/>
      <point x="945" y="316" type="curve" smooth="yes"/>
      <point x="929" y="334"/>
      <point x="911" y="365"/>
      <point x="896" y="409" type="curve" smooth="yes"/>
      <point x="852" y="536" type="line"/>
      <point x="761" y="536" type="line"/>
      <point x="656" y="4" type="line" smooth="yes"/>
      <point x="632" y="-116"/>
      <point x="575" y="-166"/>
      <point x="470" y="-166" type="curve" smooth="yes"/>
      <point x="15" y="-166" type="line"/>
    </contour>
  </outline>
</glyph>
<glyph name="u10B52" format="2">
  <advance width="605"/>
  <unicode hex="10B52"/>
  <outline>
    <contour>
      <point x="-5" y="-10" type="line"/>
      <point x="162" y="-10"/>
      <point x="233" y="172"/>
      <point x="249" y="374" type="curve"/>
      <point x="266" y="373"/>
      <point x="295" y="372"/>
      <point x="336" y="372" type="curve" smooth="yes"/>
      <point x="457" y="372" type="line"/>
      <point x="442" y="172"/>
      <point x="386" y="71"/>
      <point x="291" y="68" type="curve"/>
      <point x="291" y="-10" type="line"/>
      <point x="476" y="-10"/>
      <point x="541" y="209"/>
      <point x="549" y="446" type="curve"/>
      <point x="381" y="446" type="line" smooth="yes"/>
      <point x="268" y="446"/>
      <point x="167" y="451"/>
      <point x="136" y="468" type="curve" smooth="yes"/>
      <point x="112" y="481"/>
      <point x="101" y="490"/>
      <point x="93" y="536" type="curve"/>
      <point x="5" y="536" type="line"/>
      <point x="16" y="438"/>
      <point x="53" y="403"/>
      <point x="162" y="383" type="curve"/>
      <point x="151" y="229"/>
      <point x="114" y="71"/>
      <point x="-5" y="68" type="curve"/>
    </contour>
  </outline>
</glyph>
<glyph name="u10B53" format="2">
  <advance width="638"/>
  <unicode hex="10B53"/>
  <outline>
    <contour>
      <point x="38" y="0" type="line"/>
      <point x="86" y="0" type="line" smooth="yes"/>
      <point x="273" y="0"/>
      <point x="419" y="26"/>
      <point x="510" y="117" type="curve" smooth="yes"/>
      <point x="574" y="181"/>
      <point x="606" y="278"/>
      <point x="607" y="419" type="curve"/>
      <point x="299" y="419" type="line" smooth="yes"/>
      <point x="206" y="419"/>
      <point x="172" y="444"/>
      <point x="172" y="536" type="curve"/>
      <point x="84" y="536" type="line"/>
      <point x="84" y="395"/>
      <point x="147" y="345"/>
      <point x="301" y="345" type="curve" smooth="yes"/>
      <point x="512" y="345" type="line"/>
      <point x="509" y="161"/>
      <point x="370" y="74"/>
      <point x="83" y="74" type="curve" smooth="yes"/>
      <point x="38" y="74" type="line"/>
    </contour>
  </outline>
</glyph>
<glyph name="u10B54" format="2">
  <advance width="589"/>
  <unicode hex="10B54"/>
  <outline>
    <contour>
      <point x="79" y="-70" type="curve"/>
      <point x="165" y="-70" type="line"/>
      <point x="175" y="-42"/>
      <point x="182" y="-19"/>
      <point x="186" y="0" type="curve"/>
      <point x="321" y="42"/>
      <point x="421" y="104"/>
      <point x="523" y="204" type="curve"/>
      <point x="472" y="267" type="line"/>
      <point x="382" y="183"/>
      <point x="285" y="120"/>
      <point x="201" y="86" type="curve"/>
      <point x="206" y="125"/>
      <point x="208" y="183"/>
      <point x="210" y="260" type="curve"/>
      <point x="324" y="315"/>
      <point x="424" y="389"/>
      <point x="509" y="482" type="curve"/>
      <point x="457" y="546" type="line"/>
      <point x="382" y="464"/>
      <point x="299" y="397"/>
      <point x="207" y="344" type="curve"/>
      <point x="201" y="414"/>
      <point x="183" y="464"/>
      <point x="154" y="496" type="curve" smooth="yes"/>
      <point x="125" y="528"/>
      <point x="81" y="544"/>
      <point x="20" y="544" type="curve"/>
      <point x="20" y="470" type="line"/>
      <point x="51" y="469"/>
      <point x="72" y="461"/>
      <point x="85" y="448" type="curve" smooth="yes"/>
      <point x="98" y="435"/>
      <point x="107" y="413"/>
      <point x="113" y="383" type="curve" smooth="yes"/>
      <point x="119" y="354"/>
      <point x="122" y="312"/>
      <point x="122" y="258" type="curve" smooth="yes"/>
      <point x="122" y="121"/>
      <point x="114" y="54"/>
    </contour>
  </outline>
</glyph>
<glyph name="u10B55" format="2">
  <advance width="690"/>
  <unicode hex="10B55"/>
  <outline>
    <contour>
      <point x="34" y="0" type="curve"/>
      <point x="136" y="0" type="line"/>
      <point x="229" y="116"/>
      <point x="262" y="250"/>
      <point x="263" y="402" type="curve"/>
      <point x="296" y="443"/>
      <point x="348" y="472"/>
      <point x="413" y="472" type="curve" smooth="yes"/>
      <point x="488" y="472"/>
      <point x="530" y="426"/>
      <point x="530" y="342" type="curve" smooth="yes"/>
      <point x="530" y="226"/>
      <point x="471" y="83"/>
      <point x="394" y="0" type="curve"/>
      <point x="499" y="0" type="line"/>
      <point x="566" y="79"/>
      <point x="621" y="228"/>
      <point x="621" y="338" type="curve" smooth="yes"/>
      <point x="621" y="454"/>
      <point x="566" y="546"/>
      <point x="423" y="546" type="curve" smooth="yes"/>
      <point x="357" y="546"/>
      <point x="301" y="525"/>
      <point x="257" y="495" type="curve"/>
      <point x="248" y="564"/>
      <point x="229" y="617"/>
      <point x="217" y="652" type="curve"/>
      <point x="129" y="652" type="line"/>
      <point x="161" y="574"/>
      <point x="177" y="494"/>
      <point x="177" y="409" type="curve" smooth="yes"/>
      <point x="177" y="253"/>
      <point x="142" y="123"/>
    </contour>
  </outline>
</glyph>
<glyph name="u10B58" format="2">
  <advance width="317"/>
  <unicode hex="10B58"/>
  <outline>
    <contour>
      <point x="20" y="-8" type="line"/>
      <point x="145" y="-8"/>
      <point x="210" y="63"/>
      <point x="210" y="204" type="curve" smooth="yes"/>
      <point x="210" y="714" type="line"/>
      <point x="122" y="714" type="line"/>
      <point x="122" y="204" type="line" smooth="yes"/>
      <point x="122" y="109"/>
      <point x="92" y="70"/>
      <point x="20" y="70" type="curve"/>
    </contour>
  </outline>
</glyph>
<glyph name="u10B59" format="2">
  <advance width="538"/>
  <unicode hex="10B59"/>
  <outline>
    <contour>
      <point x="240" y="-8" type="line"/>
      <point x="366" y="-8"/>
      <point x="430" y="65"/>
      <point x="430" y="204" type="curve" smooth="yes"/>
      <point x="430" y="714" type="line"/>
      <point x="342" y="714" type="line"/>
      <point x="342" y="204" type="line"/>
      <point x="342" y="109"/>
      <point x="313" y="70"/>
      <point x="240" y="70" type="curve"/>
    </contour>
    <contour>
      <point x="20" y="-8" type="line"/>
      <point x="145" y="-8"/>
      <point x="210" y="63"/>
      <point x="210" y="204" type="curve" smooth="yes"/>
      <point x="210" y="714" type="line"/>
      <point x="122" y="714" type="line"/>
      <point x="122" y="204" type="line"/>
      <point x="122" y="109"/>
      <point x="92" y="70"/>
      <point x="20" y="70" type="curve"/>
    </contour>
  </outline>
</glyph>
<glyph name="u10B5B" format="2">
  <advance width="978"/>
  <unicode hex="10B5B"/>
  <outline>
    <contour>
      <point x="680" y="-8" type="line"/>
      <point x="806" y="-8"/>
      <point x="870" y="65"/>
      <point x="870" y="204" type="curve" smooth="yes"/>
      <point x="870" y="714" type="line"/>
      <point x="782" y="714" type="line"/>
      <point x="782" y="204" type="line"/>
      <point x="782" y="109"/>
      <point x="752" y="70"/>
      <point x="680" y="70" type="curve"/>
    </contour>
    <contour>
      <point x="20" y="-8" type="line"/>
      <point x="145" y="-8"/>
      <point x="210" y="63"/>
      <point x="210" y="204" type="curve" smooth="yes"/>
      <point x="210" y="714" type="line"/>
      <point x="122" y="714" type="line"/>
      <point x="122" y="204" type="line"/>
      <point x="122" y="109"/>
      <point x="92" y="70"/>
      <point x="20" y="70" type="curve"/>
    </contour>
    <contour>
      <point x="240" y="-8" type="line"/>
      <point x="366" y="-8"/>
      <point x="430" y="65"/>
      <point x="430" y="204" type="curve" smooth="yes"/>
      <point x="430" y="714" type="line"/>
      <point x="342" y="714" type="line"/>
      <point x="342" y="204" type="line"/>
      <point x="342" y="109"/>
      <point x="313" y="70"/>
      <point x="240" y="70" type="curve"/>
    </contour>
    <contour>
      <point x="460" y="-8" type="line"/>
      <point x="585" y="-8"/>
      <point x="650" y="63"/>
      <point x="650" y="204" type="curve" smooth="yes"/>
      <point x="650" y="714" type="line"/>
      <point x="562" y="714" type="line"/>
      <point x="562" y="204" type="line"/>
      <point x="562" y="109"/>
      <point x="532" y="70"/>
      <point x="460" y="70" type="curve"/>
    </contour>
  </outline>
</glyph>
<glyph name="u10B5C" format="2">
  <advance width="656"/>
  <unicode hex="10B5C"/>
  <outline>
    <contour>
      <point x="571" y="-10" type="curve" smooth="yes"/>
      <point x="597" y="-10" type="line"/>
      <point x="597" y="68" type="line"/>
      <point x="362" y="68"/>
      <point x="212" y="174"/>
      <point x="147" y="387" type="curve"/>
      <point x="185" y="353"/>
      <point x="240" y="335"/>
      <point x="315" y="335" type="curve" smooth="yes"/>
      <point x="455" y="335"/>
      <point x="559" y="404"/>
      <point x="567" y="536" type="curve"/>
      <point x="479" y="536" type="line"/>
      <point x="469" y="458"/>
      <point x="409" y="413"/>
      <point x="308" y="413" type="curve" smooth="yes"/>
      <point x="210" y="413"/>
      <point x="148" y="442"/>
      <point x="112" y="536" type="curve"/>
      <point x="39" y="536" type="line"/>
      <point x="54" y="219"/>
      <point x="253" y="-10"/>
    </contour>
  </outline>
</glyph>
<glyph name="u10B5D" format="2">
  <advance width="661"/>
  <unicode hex="10B5D"/>
  <outline>
    <contour>
      <point x="39" y="0" type="line"/>
      <point x="266" y="0" type="line" smooth="yes"/>
      <point x="486" y="0"/>
      <point x="602" y="99"/>
      <point x="602" y="294" type="curve" smooth="yes"/>
      <point x="602" y="448"/>
      <point x="523" y="546"/>
      <point x="378" y="546" type="curve" smooth="yes"/>
      <point x="271" y="546"/>
      <point x="181" y="462"/>
      <point x="181" y="358" type="curve" smooth="yes"/>
      <point x="181" y="251"/>
      <point x="263" y="171"/>
      <point x="377" y="171" type="curve" smooth="yes"/>
      <point x="427" y="171"/>
      <point x="472" y="187"/>
      <point x="508" y="218" type="curve"/>
      <point x="486" y="120"/>
      <point x="381" y="78"/>
      <point x="258" y="78" type="curve" smooth="yes"/>
      <point x="39" y="78" type="line"/>
    </contour>
    <contour>
      <point x="387" y="245" type="curve" smooth="yes"/>
      <point x="320" y="245"/>
      <point x="273" y="291"/>
      <point x="273" y="358" type="curve" smooth="yes"/>
      <point x="273" y="427"/>
      <point x="319" y="472"/>
      <point x="387" y="472" type="curve" smooth="yes"/>
      <point x="454" y="472"/>
      <point x="502" y="426"/>
      <point x="502" y="358" type="curve" smooth="yes"/>
      <point x="502" y="295"/>
      <point x="451" y="245"/>
    </contour>
  </outline>
</glyph>
<glyph name="u10B5E" format="2">
  <advance width="910"/>
  <unicode hex="10B5E"/>
  <outline>
    <contour>
      <point x="239" y="0" type="curve" smooth="yes"/>
      <point x="871" y="0" type="line"/>
      <point x="871" y="78" type="line"/>
      <point x="239" y="78" type="line" smooth="yes"/>
      <point x="179" y="78"/>
      <point x="148" y="103"/>
      <point x="148" y="152" type="curve" smooth="yes"/>
      <point x="148" y="186"/>
      <point x="172" y="208"/>
      <point x="219" y="224" type="curve" smooth="yes"/>
      <point x="271" y="242"/>
      <point x="306" y="257"/>
      <point x="322" y="268" type="curve" smooth="yes"/>
      <point x="355" y="291"/>
      <point x="372" y="324"/>
      <point x="372" y="365" type="curve" smooth="yes"/>
      <point x="372" y="416"/>
      <point x="351" y="449"/>
      <point x="287" y="479" type="curve" smooth="yes"/>
      <point x="259" y="492"/>
      <point x="240" y="501"/>
      <point x="231" y="508" type="curve" smooth="yes"/>
      <point x="210" y="524"/>
      <point x="202" y="537"/>
      <point x="202" y="563" type="curve" smooth="yes"/>
      <point x="202" y="608"/>
      <point x="233" y="635"/>
      <point x="286" y="635" type="curve" smooth="yes"/>
      <point x="323" y="635"/>
      <point x="358" y="614"/>
      <point x="396" y="570" type="curve" smooth="yes"/>
      <point x="473" y="480"/>
      <point x="524" y="428"/>
      <point x="626" y="428" type="curve" smooth="yes"/>
      <point x="734" y="428"/>
      <point x="796" y="489"/>
      <point x="796" y="588" type="curve" smooth="yes"/>
      <point x="796" y="691"/>
      <point x="731" y="746"/>
      <point x="614" y="746" type="curve"/>
      <point x="614" y="668" type="line"/>
      <point x="681" y="668"/>
      <point x="707" y="641"/>
      <point x="707" y="587" type="curve" smooth="yes"/>
      <point x="707" y="533"/>
      <point x="684" y="506"/>
      <point x="628" y="506" type="curve" smooth="yes"/>
      <point x="572" y="506"/>
      <point x="543" y="526"/>
      <point x="472" y="611" type="curve" smooth="yes"/>
      <point x="421" y="673"/>
      <point x="366" y="714"/>
      <point x="286" y="714" type="curve" smooth="yes"/>
      <point x="189" y="714"/>
      <point x="111" y="642"/>
      <point x="111" y="563" type="curve" smooth="yes"/>
      <point x="111" y="516"/>
      <point x="126" y="482"/>
      <point x="153" y="459" type="curve" smooth="yes"/>
      <point x="167" y="447"/>
      <point x="192" y="434"/>
      <point x="228" y="421" type="curve" smooth="yes"/>
      <point x="263" y="408"/>
      <point x="281" y="389"/>
      <point x="281" y="362" type="curve" smooth="yes"/>
      <point x="281" y="333"/>
      <point x="260" y="314"/>
      <point x="211" y="299" type="curve" smooth="yes"/>
      <point x="163" y="284"/>
      <point x="131" y="270"/>
      <point x="113" y="258" type="curve" smooth="yes"/>
      <point x="75" y="233"/>
      <point x="59" y="197"/>
      <point x="59" y="151" type="curve" smooth="yes"/>
      <point x="59" y="54"/>
      <point x="129" y="0"/>
    </contour>
  </outline>
</glyph>
<glyph name="u10B5F" format="2">
  <advance width="661"/>
  <unicode hex="10B5F"/>
  <outline>
    <contour>
      <point x="39" y="0" type="line"/>
      <point x="266" y="0" type="line" smooth="yes"/>
      <point x="487" y="0"/>
      <point x="602" y="93"/>
      <point x="602" y="272" type="curve" smooth="yes"/>
      <point x="602" y="412"/>
      <point x="527" y="493"/>
      <point x="387" y="503" type="curve"/>
      <point x="387" y="714" type="line"/>
      <point x="299" y="714" type="line"/>
      <point x="299" y="500" type="line"/>
      <point x="253" y="493"/>
      <point x="215" y="482"/>
      <point x="182" y="467" type="curve"/>
      <point x="182" y="388" type="line"/>
      <point x="230" y="412"/>
      <point x="293" y="427"/>
      <point x="349" y="427" type="curve" smooth="yes"/>
      <point x="458" y="427"/>
      <point x="511" y="374"/>
      <point x="511" y="267" type="curve" smooth="yes"/>
      <point x="511" y="125"/>
      <point x="419" y="78"/>
      <point x="258" y="78" type="curve" smooth="yes"/>
      <point x="39" y="78" type="line"/>
    </contour>
  </outline>
</glyph>
<glyph name="u10B4210B45" format="2">
  <advance width="951"/>
  <outline>
    <contour>
      <point x="391" y="-10" type="curve" smooth="yes"/>
      <point x="742" y="-10"/>
      <point x="894" y="247"/>
      <point x="909" y="536" type="curve"/>
      <point x="832" y="536" type="line"/>
      <point x="763" y="429"/>
      <point x="668" y="376"/>
      <point x="547" y="376" type="curve" smooth="yes"/>
      <point x="527" y="376"/>
      <point x="508" y="378"/>
      <point x="491" y="382" type="curve"/>
      <point x="464" y="310" type="line"/>
      <point x="488" y="304"/>
      <point x="516" y="301"/>
      <point x="547" y="301" type="curve" smooth="yes"/>
      <point x="646" y="301"/>
      <point x="731" y="334"/>
      <point x="804" y="401" type="curve"/>
      <point x="750" y="206"/>
      <point x="617" y="64"/>
      <point x="391" y="64" type="curve" smooth="yes"/>
      <point x="355" y="64"/>
      <point x="324" y="66"/>
      <point x="296" y="72" type="curve"/>
      <point x="346" y="112"/>
      <point x="399" y="182"/>
      <point x="399" y="279" type="curve" smooth="yes"/>
      <point x="399" y="372"/>
      <point x="343" y="458"/>
      <point x="220" y="458" type="curve" smooth="yes"/>
      <point x="119" y="458"/>
      <point x="39" y="375"/>
      <point x="39" y="274" type="curve" smooth="yes"/>
      <point x="39" y="86"/>
      <point x="172" y="-10"/>
    </contour>
    <contour>
      <point x="208" y="106" type="curve"/>
      <point x="154" y="143"/>
      <point x="130" y="200"/>
      <point x="130" y="273" type="curve" smooth="yes"/>
      <point x="130" y="337"/>
      <point x="169" y="384"/>
      <point x="222" y="384" type="curve" smooth="yes"/>
      <point x="274" y="384"/>
      <point x="309" y="347"/>
      <point x="309" y="280" type="curve" smooth="yes"/>
      <point x="309" y="207"/>
      <point x="269" y="146"/>
    </contour>
  </outline>
</glyph>
<glyph name="u10B4710B45" format="2">
  <advance width="1118"/>
  <outline>
    <contour>
      <point x="312" y="-10" type="curve" smooth="yes"/>
      <point x="523" y="-10"/>
      <point x="597" y="151"/>
      <point x="638" y="304" type="curve"/>
      <point x="667" y="130"/>
      <point x="779" y="0"/>
      <point x="946" y="0" type="curve" smooth="yes"/>
      <point x="1033" y="0" type="line"/>
      <point x="1033" y="536" type="line"/>
      <point x="945" y="536" type="line"/>
      <point x="945" y="74" type="line"/>
      <point x="774" y="74"/>
      <point x="684" y="306"/>
      <point x="682" y="536" type="curve"/>
      <point x="594" y="536" type="line"/>
      <point x="590" y="331"/>
      <point x="501" y="64"/>
      <point x="322" y="64" type="curve" smooth="yes"/>
      <point x="311" y="64"/>
      <point x="301" y="64"/>
      <point x="292" y="65" type="curve"/>
      <point x="342" y="104"/>
      <point x="399" y="176"/>
      <point x="399" y="279" type="curve" smooth="yes"/>
      <point x="399" y="372"/>
      <point x="342" y="458"/>
      <point x="225" y="458" type="curve" smooth="yes"/>
      <point x="119" y="458"/>
      <point x="39" y="378"/>
      <point x="39" y="266" type="curve" smooth="yes"/>
      <point x="39" y="125"/>
      <point x="126" y="-10"/>
    </contour>
    <contour>
      <point x="202" y="100" type="curve"/>
      <point x="153" y="137"/>
      <point x="130" y="199"/>
      <point x="130" y="266" type="curve" smooth="yes"/>
      <point x="130" y="330"/>
      <point x="167" y="384"/>
      <point x="220" y="384" type="curve" smooth="yes"/>
      <point x="273" y="384"/>
      <point x="309" y="347"/>
      <point x="309" y="280" type="curve" smooth="yes"/>
      <point x="309" y="203"/>
      <point x="269" y="138"/>
    </contour>
  </outline>
</glyph>
<glyph name="u10B4910B45" format="2">
  <advance width="715"/>
  <outline>
    <contour>
      <point x="338" y="-10" type="curve" smooth="yes"/>
      <point x="474" y="-10"/>
      <point x="630" y="35"/>
      <point x="630" y="224" type="curve" smooth="yes"/>
      <point x="630" y="536" type="line"/>
      <point x="542" y="536" type="line"/>
      <point x="542" y="214" type="line" smooth="yes"/>
      <point x="542" y="91"/>
      <point x="444" y="64"/>
      <point x="338" y="64" type="curve" smooth="yes"/>
      <point x="322" y="64"/>
      <point x="308" y="65"/>
      <point x="294" y="67" type="curve"/>
      <point x="344" y="106"/>
      <point x="399" y="177"/>
      <point x="399" y="279" type="curve" smooth="yes"/>
      <point x="399" y="372"/>
      <point x="342" y="458"/>
      <point x="225" y="458" type="curve" smooth="yes"/>
      <point x="119" y="458"/>
      <point x="39" y="378"/>
      <point x="39" y="266" type="curve" smooth="yes"/>
      <point x="39" y="125"/>
      <point x="128" y="-10"/>
    </contour>
    <contour>
      <point x="206" y="102" type="curve"/>
      <point x="154" y="140"/>
      <point x="130" y="201"/>
      <point x="130" y="266" type="curve" smooth="yes"/>
      <point x="130" y="330"/>
      <point x="167" y="384"/>
      <point x="220" y="384" type="curve" smooth="yes"/>
      <point x="273" y="384"/>
      <point x="309" y="347"/>
      <point x="309" y="280" type="curve" smooth="yes"/>
      <point x="309" y="204"/>
      <point x="271" y="141"/>
    </contour>
  </outline>
</glyph>
<glyph name="u10B4D.alt01" format="2">
  <advance width="299"/>
  <outline>
    <contour>
      <point x="-657" y="-166" type="line"/>
      <point x="214" y="-166" type="line"/>
      <point x="214" y="536" type="line"/>
      <point x="126" y="536" type="line"/>
      <point x="126" y="-92" type="line"/>
      <point x="-657" y="-92" type="line"/>
    </contour>
  </outline>
</glyph>
<glyph name="u10B4D10B43" format="2">
  <advance width="841"/>
  <outline>
    <contour>
      <point x="34" y="-105" type="line"/>
      <point x="756" y="-105" type="line"/>
      <point x="756" y="536" type="line"/>
      <point x="668" y="536" type="line"/>
      <point x="668" y="-31" type="line"/>
      <point x="34" y="-31" type="line"/>
    </contour>
    <contour>
      <point x="29" y="-290" type="curve"/>
      <point x="89" y="-290" type="line"/>
      <point x="98" y="-255"/>
      <point x="135" y="-238"/>
      <point x="182" y="-238" type="curve" smooth="yes"/>
      <point x="234" y="-238"/>
      <point x="265" y="-255"/>
      <point x="275" y="-290" type="curve"/>
      <point x="335" y="-290" type="line"/>
      <point x="323" y="-212"/>
      <point x="270" y="-169"/>
      <point x="183" y="-169" type="curve" smooth="yes"/>
      <point x="101" y="-169"/>
      <point x="40" y="-215"/>
    </contour>
    <contour>
      <point x="39" y="38" type="line"/>
      <point x="87" y="38" type="line" smooth="yes"/>
      <point x="428" y="38"/>
      <point x="570" y="128"/>
      <point x="608" y="419" type="curve"/>
      <point x="355" y="419" type="line" smooth="yes"/>
      <point x="217" y="419"/>
      <point x="173" y="441"/>
      <point x="173" y="536" type="curve"/>
      <point x="85" y="536" type="line"/>
      <point x="87" y="395"/>
      <point x="156" y="345"/>
      <point x="356" y="345" type="curve" smooth="yes"/>
      <point x="503" y="345" type="line"/>
      <point x="469" y="180"/>
      <point x="357" y="112"/>
      <point x="110" y="112" type="curve" smooth="yes"/>
      <point x="39" y="112" type="line"/>
    </contour>
  </outline>
</glyph>
<glyph name="u10B4D10B45" format="2">
  <advance width="803"/>
  <outline>
    <contour>
      <point x="389" y="-10" type="curve" smooth="yes"/>
      <point x="617" y="-10"/>
      <point x="718" y="73"/>
      <point x="718" y="211" type="curve" smooth="yes"/>
      <point x="718" y="536" type="line"/>
      <point x="630" y="536" type="line"/>
      <point x="630" y="213" type="line" smooth="yes"/>
      <point x="630" y="101"/>
      <point x="542" y="64"/>
      <point x="395" y="64" type="curve" smooth="yes"/>
      <point x="359" y="64"/>
      <point x="328" y="67"/>
      <point x="300" y="72" type="curve"/>
      <point x="348" y="112"/>
      <point x="399" y="182"/>
      <point x="399" y="279" type="curve" smooth="yes"/>
      <point x="399" y="372"/>
      <point x="342" y="458"/>
      <point x="225" y="458" type="curve" smooth="yes"/>
      <point x="119" y="458"/>
      <point x="39" y="378"/>
      <point x="39" y="266" type="curve" smooth="yes"/>
      <point x="39" y="126"/>
      <point x="122" y="-10"/>
    </contour>
    <contour>
      <point x="211" y="105" type="curve"/>
      <point x="154" y="140"/>
      <point x="130" y="196"/>
      <point x="130" y="266" type="curve" smooth="yes"/>
      <point x="130" y="330"/>
      <point x="167" y="384"/>
      <point x="220" y="384" type="curve" smooth="yes"/>
      <point x="273" y="384"/>
      <point x="309" y="347"/>
      <point x="309" y="280" type="curve" smooth="yes"/>
      <point x="309" y="206"/>
      <point x="272" y="144"/>
    </contour>
  </outline>
</glyph>
<glyph name="u10B4D10B4D" format="2">
  <advance width="1041"/>
  <outline>
    <contour>
      <point x="15" y="-301" type="line"/>
      <point x="956" y="-301" type="line"/>
      <point x="956" y="536" type="line"/>
      <point x="868" y="536" type="line"/>
      <point x="868" y="-227" type="line"/>
      <point x="15" y="-227" type="line"/>
    </contour>
    <contour>
      <point x="15" y="-166" type="line"/>
      <point x="715" y="-166" type="line"/>
      <point x="715" y="536" type="line"/>
      <point x="627" y="536" type="line"/>
      <point x="627" y="-92" type="line"/>
      <point x="15" y="-92" type="line"/>
    </contour>
  </outline>
</glyph>
<glyph name="u10B4F10B4B" format="2">
  <advance width="966"/>
  <outline>
    <contour>
      <point x="358" y="0" type="curve" smooth="yes"/>
      <point x="523" y="0" type="line" smooth="yes"/>
      <point x="762" y="0"/>
      <point x="881" y="88"/>
      <point x="881" y="275" type="curve" smooth="yes"/>
      <point x="881" y="339"/>
      <point x="864" y="389"/>
      <point x="829" y="426" type="curve" smooth="yes"/>
      <point x="794" y="463"/>
      <point x="746" y="482"/>
      <point x="686" y="482" type="curve" smooth="yes"/>
      <point x="667" y="482"/>
      <point x="645" y="480"/>
      <point x="618" y="476" type="curve" smooth="yes"/>
      <point x="591" y="472"/>
      <point x="571" y="469"/>
      <point x="557" y="469" type="curve" smooth="yes"/>
      <point x="520" y="469"/>
      <point x="502" y="489"/>
      <point x="502" y="536" type="curve"/>
      <point x="415" y="536" type="line"/>
      <point x="415" y="436"/>
      <point x="457" y="394"/>
      <point x="546" y="394" type="curve" smooth="yes"/>
      <point x="559" y="394"/>
      <point x="578" y="397"/>
      <point x="604" y="401" type="curve" smooth="yes"/>
      <point x="628" y="405"/>
      <point x="648" y="407"/>
      <point x="664" y="407" type="curve" smooth="yes"/>
      <point x="750" y="407"/>
      <point x="792" y="357"/>
      <point x="792" y="269" type="curve" smooth="yes"/>
      <point x="792" y="200"/>
      <point x="770" y="151"/>
      <point x="728" y="121" type="curve" smooth="yes"/>
      <point x="685" y="90"/>
      <point x="617" y="75"/>
      <point x="524" y="75" type="curve" smooth="yes"/>
      <point x="358" y="75" type="line" smooth="yes"/>
      <point x="339" y="75"/>
      <point x="323" y="76"/>
      <point x="307" y="78" type="curve"/>
      <point x="353" y="118"/>
      <point x="399" y="186"/>
      <point x="399" y="279" type="curve" smooth="yes"/>
      <point x="399" y="372"/>
      <point x="342" y="458"/>
      <point x="225" y="458" type="curve" smooth="yes"/>
      <point x="207" y="458"/>
      <point x="189" y="455"/>
      <point x="173" y="451" type="curve"/>
      <point x="173" y="760" type="line"/>
      <point x="84" y="760" type="line"/>
      <point x="84" y="395" type="line"/>
      <point x="56" y="362"/>
      <point x="39" y="317"/>
      <point x="39" y="266" type="curve" smooth="yes"/>
      <point x="39" y="132"/>
      <point x="116" y="0"/>
    </contour>
    <contour>
      <point x="213" y="106" type="curve"/>
      <point x="155" y="139"/>
      <point x="130" y="195"/>
      <point x="130" y="266" type="curve" smooth="yes"/>
      <point x="130" y="330"/>
      <point x="167" y="384"/>
      <point x="220" y="384" type="curve" smooth="yes"/>
      <point x="273" y="384"/>
      <point x="309" y="347"/>
      <point x="309" y="280" type="curve" smooth="yes"/>
      <point x="309" y="207"/>
      <point x="273" y="145"/>
    </contour>
  </outline>
</glyph>
<glyph name="u10B51.alt01" format="2">
  <advance width="596"/>
  <outline>
    <contour>
      <point x="-581" y="-240" type="line"/>
      <point x="-125" y="-240" type="line" smooth="yes"/>
      <point x="38" y="-240"/>
      <point x="115" y="-173"/>
      <point x="148" y="0" type="curve" smooth="yes"/>
      <point x="221" y="382" type="line"/>
      <point x="257" y="259"/>
      <point x="302" y="217"/>
      <point x="422" y="217" type="curve" smooth="yes"/>
      <point x="547" y="217" type="line"/>
      <point x="506" y="280"/>
      <point x="495" y="320"/>
      <point x="495" y="395" type="curve" smooth="yes"/>
      <point x="495" y="536" type="line"/>
      <point x="407" y="536" type="line"/>
      <point x="407" y="396" type="line" smooth="yes"/>
      <point x="407" y="351"/>
      <point x="411" y="317"/>
      <point x="419" y="295" type="curve"/>
      <point x="351" y="295"/>
      <point x="331" y="325"/>
      <point x="301" y="409" type="curve" smooth="yes"/>
      <point x="256" y="536" type="line"/>
      <point x="166" y="536" type="line"/>
      <point x="61" y="4" type="line" smooth="yes"/>
      <point x="37" y="-116"/>
      <point x="-21" y="-166"/>
      <point x="-125" y="-166" type="curve" smooth="yes"/>
      <point x="-581" y="-166" type="line"/>
    </contour>
  </outline>
</glyph>
<glyph name="u10B5310B45" format="2">
  <advance width="970"/>
  <outline>
    <contour>
      <point x="421" y="0" type="curve" smooth="yes"/>
      <point x="508" y="0" type="line" smooth="yes"/>
      <point x="755" y="0"/>
      <point x="939" y="118"/>
      <point x="939" y="419" type="curve"/>
      <point x="631" y="419" type="line" smooth="yes"/>
      <point x="536" y="419"/>
      <point x="504" y="445"/>
      <point x="504" y="536" type="curve"/>
      <point x="416" y="536" type="line"/>
      <point x="416" y="395"/>
      <point x="479" y="345"/>
      <point x="633" y="345" type="curve" smooth="yes"/>
      <point x="844" y="345" type="line"/>
      <point x="841" y="161"/>
      <point x="685" y="74"/>
      <point x="511" y="74" type="curve" smooth="yes"/>
      <point x="424" y="74" type="line" smooth="yes"/>
      <point x="380" y="74"/>
      <point x="342" y="77"/>
      <point x="309" y="83" type="curve"/>
      <point x="354" y="124"/>
      <point x="399" y="190"/>
      <point x="399" y="279" type="curve" smooth="yes"/>
      <point x="399" y="372"/>
      <point x="343" y="458"/>
      <point x="220" y="458" type="curve" smooth="yes"/>
      <point x="119" y="458"/>
      <point x="39" y="375"/>
      <point x="39" y="274" type="curve" smooth="yes"/>
      <point x="39" y="86"/>
      <point x="181" y="0"/>
    </contour>
    <contour>
      <point x="218" y="113" type="curve"/>
      <point x="158" y="146"/>
      <point x="130" y="200"/>
      <point x="130" y="273" type="curve" smooth="yes"/>
      <point x="130" y="337"/>
      <point x="169" y="384"/>
      <point x="222" y="384" type="curve" smooth="yes"/>
      <point x="274" y="384"/>
      <point x="309" y="347"/>
      <point x="309" y="280" type="curve" smooth="yes"/>
      <point x="309" y="211"/>
      <point x="273" y="152"/>
    </contour>
  </outline>
</glyph>
<glyph name="u10B5510B45" format="2">
  <advance width="1057"/>
  <outline>
    <contour>
      <point x="332" y="-10" type="curve" smooth="yes"/>
      <point x="562" y="-10"/>
      <point x="627" y="168"/>
      <point x="629" y="402" type="curve"/>
      <point x="663" y="443"/>
      <point x="714" y="472"/>
      <point x="779" y="472" type="curve" smooth="yes"/>
      <point x="854" y="472"/>
      <point x="896" y="426"/>
      <point x="896" y="342" type="curve" smooth="yes"/>
      <point x="896" y="226"/>
      <point x="837" y="83"/>
      <point x="760" y="0" type="curve"/>
      <point x="865" y="0" type="line"/>
      <point x="933" y="79"/>
      <point x="987" y="228"/>
      <point x="987" y="338" type="curve" smooth="yes"/>
      <point x="987" y="454"/>
      <point x="932" y="546"/>
      <point x="790" y="546" type="curve" smooth="yes"/>
      <point x="724" y="546"/>
      <point x="667" y="525"/>
      <point x="624" y="495" type="curve"/>
      <point x="614" y="564"/>
      <point x="596" y="617"/>
      <point x="583" y="652" type="curve"/>
      <point x="495" y="652" type="line"/>
      <point x="527" y="574"/>
      <point x="543" y="494"/>
      <point x="543" y="409" type="curve" smooth="yes"/>
      <point x="543" y="242"/>
      <point x="521" y="64"/>
      <point x="338" y="64" type="curve" smooth="yes"/>
      <point x="322" y="64"/>
      <point x="308" y="65"/>
      <point x="294" y="67" type="curve"/>
      <point x="344" y="106"/>
      <point x="399" y="177"/>
      <point x="399" y="279" type="curve" smooth="yes"/>
      <point x="399" y="372"/>
      <point x="342" y="458"/>
      <point x="225" y="458" type="curve" smooth="yes"/>
      <point x="119" y="458"/>
      <point x="39" y="378"/>
      <point x="39" y="266" type="curve" smooth="yes"/>
      <point x="39" y="125"/>
      <point x="122" y="-10"/>
    </contour>
    <contour>
      <point x="206" y="102" type="curve"/>
      <point x="154" y="140"/>
      <point x="130" y="201"/>
      <point x="130" y="266" type="curve" smooth="yes"/>
      <point x="130" y="330"/>
      <point x="167" y="384"/>
      <point x="220" y="384" type="curve" smooth="yes"/>
      <point x="273" y="384"/>
      <point x="309" y="347"/>
      <point x="309" y="280" type="curve" smooth="yes"/>
      <point x="309" y="204"/>
      <point x="271" y="141"/>
    </contour>
  </outline>
</glyph>
